<svg width="116" height="139" viewBox="0 0 116 139" fill="none" xmlns="http://www.w3.org/2000/svg">
<path fill-rule="evenodd" clip-rule="evenodd" d="M17.1055 7.19574C14.2441 9.19646 11.6567 11.562 9.41065 14.2248C18.5893 13.3727 30.2503 14.7641 43.7887 21.5334C58.246 28.7618 69.8876 29.0062 77.9896 27.4434C77.2544 25.2176 76.3288 23.0784 75.2326 21.0448C65.958 22.023 54.068 20.7282 40.2112 13.8C31.4119 9.40036 23.6555 7.58802 17.1055 7.19574ZM69.8148 13.3333C62.4906 5.14999 51.8468 0 39.9999 0C36.5209 0 33.1453 0.444214 29.9273 1.27896C34.2857 2.46817 38.9157 4.20797 43.7887 6.64454C53.934 11.7171 62.6928 13.3503 69.8148 13.3333ZM79.7218 35.2562C69.9338 37.189 56.4176 36.792 40.2112 28.6888C25.0599 21.1132 13.0009 21.2086 4.8678 23.016C4.448 23.1092 4.03808 23.2072 3.63806 23.3092C2.57324 25.625 1.72327 28.0602 1.1134 30.589C1.76477 30.415 2.43786 30.2496 3.13232 30.0952C12.9991 27.9026 26.9401 27.9978 43.7887 36.4222C58.9402 43.9978 70.9992 43.9024 79.1324 42.095C79.411 42.0332 79.6856 41.9692 79.9556 41.9032C79.9852 41.2726 80 40.638 80 40C80 38.395 79.9056 36.812 79.7218 35.2562ZM78.6496 50.3446C68.9566 52.0392 55.834 51.3888 40.2112 43.5776C25.0599 36.002 13.0009 36.0974 4.8678 37.9048C3.0625 38.3058 1.43848 38.7944 0.00586001 39.3102C0.001954 39.5396 0 39.7696 0 40C0 62.0914 17.9086 80 39.9999 80C58.5142 80 74.0906 67.4218 78.6496 50.3446Z" fill="white"/>
<path d="M2.58239 131V104.818H12.6051C14.4972 104.818 16.0696 105.116 17.3224 105.713C18.5838 106.301 19.5256 107.107 20.1477 108.129C20.7784 109.152 21.0938 110.311 21.0938 111.607C21.0938 112.672 20.8892 113.584 20.4801 114.342C20.071 115.092 19.5213 115.702 18.831 116.17C18.1406 116.639 17.3693 116.976 16.517 117.18V117.436C17.446 117.487 18.3366 117.773 19.1889 118.293C20.0497 118.804 20.7528 119.528 21.2983 120.466C21.8438 121.403 22.1165 122.537 22.1165 123.866C22.1165 125.222 21.7884 126.44 21.1321 127.523C20.4759 128.597 19.4872 129.445 18.1662 130.067C16.8452 130.689 15.1832 131 13.1804 131H2.58239ZM7.32528 127.037H12.4261C14.1477 127.037 15.3878 126.709 16.1463 126.053C16.9134 125.388 17.2969 124.536 17.2969 123.496C17.2969 122.72 17.1051 122.021 16.7216 121.399C16.3381 120.768 15.7926 120.274 15.0852 119.916C14.3778 119.55 13.5341 119.366 12.554 119.366H7.32528V127.037ZM7.32528 115.953H12.017C12.8352 115.953 13.5724 115.804 14.2287 115.506C14.8849 115.199 15.4006 114.768 15.7756 114.214C16.1591 113.652 16.3509 112.987 16.3509 112.22C16.3509 111.206 15.9929 110.371 15.277 109.714C14.5696 109.058 13.517 108.73 12.1193 108.73H7.32528V115.953ZM28.9144 138.364C28.2837 138.364 27.6999 138.313 27.163 138.21C26.6346 138.116 26.2127 138.006 25.8974 137.878L26.9712 134.273C27.6445 134.469 28.2454 134.563 28.7738 134.554C29.3022 134.545 29.7667 134.379 30.1673 134.055C30.5763 133.74 30.9215 133.212 31.2028 132.47L31.5991 131.409L24.4783 111.364H29.3874L33.913 126.193H34.1175L38.6559 111.364H43.5778L35.7156 133.378C35.3491 134.418 34.8633 135.308 34.2582 136.05C33.6531 136.8 32.9116 137.371 32.0337 137.763C31.1644 138.163 30.1246 138.364 28.9144 138.364ZM54.6776 131.384C52.7599 131.384 51.098 130.962 49.6918 130.118C48.2855 129.274 47.1946 128.094 46.419 126.577C45.652 125.06 45.2685 123.287 45.2685 121.259C45.2685 119.23 45.652 117.453 46.419 115.928C47.1946 114.402 48.2855 113.217 49.6918 112.374C51.098 111.53 52.7599 111.108 54.6776 111.108C56.5952 111.108 58.2571 111.53 59.6634 112.374C61.0696 113.217 62.1563 114.402 62.9233 115.928C63.6989 117.453 64.0866 119.23 64.0866 121.259C64.0866 123.287 63.6989 125.06 62.9233 126.577C62.1563 128.094 61.0696 129.274 59.6634 130.118C58.2571 130.962 56.5952 131.384 54.6776 131.384ZM54.7031 127.676C55.7429 127.676 56.6122 127.391 57.3111 126.82C58.0099 126.24 58.5298 125.464 58.8707 124.493C59.2202 123.521 59.3949 122.439 59.3949 121.246C59.3949 120.044 59.2202 118.957 58.8707 117.986C58.5298 117.006 58.0099 116.226 57.3111 115.646C56.6122 115.067 55.7429 114.777 54.7031 114.777C53.6378 114.777 52.7514 115.067 52.044 115.646C51.3452 116.226 50.821 117.006 50.4716 117.986C50.1307 118.957 49.9602 120.044 49.9602 121.246C49.9602 122.439 50.1307 123.521 50.4716 124.493C50.821 125.464 51.3452 126.24 52.044 126.82C52.7514 127.391 53.6378 127.676 54.7031 127.676ZM76.7077 131.384C74.739 131.384 73.0387 130.974 71.6069 130.156C70.1836 129.33 69.0884 128.162 68.3214 126.653C67.5543 125.136 67.1708 123.351 67.1708 121.297C67.1708 119.277 67.5543 117.504 68.3214 115.979C69.0969 114.445 70.1793 113.251 71.5685 112.399C72.9577 111.538 74.5898 111.108 76.4648 111.108C77.6751 111.108 78.8171 111.304 79.891 111.696C80.9734 112.08 81.9279 112.676 82.7546 113.486C83.5898 114.295 84.2461 115.327 84.7234 116.58C85.2006 117.824 85.4393 119.307 85.4393 121.028V122.447H69.3441V119.328H81.0032C80.9947 118.442 80.8029 117.653 80.4279 116.963C80.0529 116.264 79.5288 115.714 78.8555 115.314C78.1907 114.913 77.4151 114.713 76.5288 114.713C75.5827 114.713 74.7518 114.943 74.0359 115.403C73.32 115.855 72.7617 116.452 72.3612 117.193C71.9691 117.926 71.7688 118.732 71.7603 119.609V122.332C71.7603 123.474 71.9691 124.455 72.3867 125.273C72.8043 126.082 73.3881 126.705 74.1381 127.139C74.8881 127.565 75.766 127.778 76.7717 127.778C77.445 127.778 78.0543 127.685 78.5998 127.497C79.1452 127.301 79.6183 127.016 80.0188 126.641C80.4194 126.266 80.7219 125.801 80.9265 125.247L85.2475 125.733C84.9748 126.875 84.4549 127.872 83.6879 128.724C82.9293 129.568 81.9577 130.224 80.7731 130.693C79.5884 131.153 78.2333 131.384 76.7077 131.384ZM89.3544 131V111.364H93.8416V114.636H94.0462C94.4041 113.503 95.0178 112.629 95.8871 112.016C96.7649 111.393 97.7663 111.082 98.8913 111.082C99.147 111.082 99.4325 111.095 99.7479 111.121C100.072 111.138 100.34 111.168 100.553 111.21V115.467C100.357 115.399 100.046 115.339 99.62 115.288C99.2024 115.229 98.7976 115.199 98.4055 115.199C97.5618 115.199 96.8033 115.382 96.13 115.749C95.4652 116.107 94.9411 116.605 94.5575 117.244C94.174 117.884 93.9822 118.621 93.9822 119.456V131H89.3544ZM103.628 131V111.364H108.115V114.636H108.32C108.678 113.503 109.291 112.629 110.161 112.016C111.038 111.393 112.04 111.082 113.165 111.082C113.42 111.082 113.706 111.095 114.021 111.121C114.345 111.138 114.614 111.168 114.827 111.21V115.467C114.631 115.399 114.32 115.339 113.893 115.288C113.476 115.229 113.071 115.199 112.679 115.199C111.835 115.199 111.077 115.382 110.403 115.749C109.739 116.107 109.214 116.605 108.831 117.244C108.447 117.884 108.256 118.621 108.256 119.456V131H103.628Z" fill="white"/>
</svg>
